<?xml version="1.0" encoding="UTF-8"?>
<svg version="1.1" xmlns="http://www.w3.org/2000/svg" width="55" height="55">
<path d="M0 0 C18.15 0 36.3 0 55 0 C55 18.15 55 36.3 55 55 C36.85 55 18.7 55 0 55 C0 36.85 0 18.7 0 0 Z " fill="#2425FD" transform="translate(0,0)"/>
<path d="M0 0 C0.33 1.65 0.66 3.3 1 5 C1.99 5 2.98 5 4 5 C5.0828125 3.7625 5.0828125 3.7625 6.1875 2.5 C9 0 9 0 12.9375 -0.625 C15.95146987 -0.4076739 18.01595358 0.27349965 20.5 2 C23.11107398 5.13328878 23.86477983 6.90263589 23.5078125 11 C22.55131082 14.76714508 20.94684315 16.5342741 18 19 C14.92980855 20.03820217 12.22262966 20.38085623 9 20 C6.125 18.0625 6.125 18.0625 4 16 C3.01 16 2.02 16 1 16 C1 21.94 1 27.88 1 34 C2.98 34.66 4.96 35.32 7 36 C8 37 8 37 8.0625 39.5625 C8.041875 40.366875 8.02125 41.17125 8 42 C2.61534005 45.34769977 -1.86248927 45.45623176 -8 45.375 C-9.31484375 45.39240234 -9.31484375 45.39240234 -10.65625 45.41015625 C-15.80921592 45.38687478 -19.59785829 44.97958466 -24 42 C-24.875 39.3125 -24.875 39.3125 -25 37 C-24.360625 36.773125 -23.72125 36.54625 -23.0625 36.3125 C-20.82099624 35.19926834 -20.82099624 35.19926834 -20.375 32.96875 C-19.87705425 29.02667949 -19.89425644 25.15592801 -19.9375 21.1875 C-19.94201172 20.39923828 -19.94652344 19.61097656 -19.95117188 18.79882812 C-19.96288688 16.86585239 -19.98082002 14.93291607 -20 13 C-21.32 12.34 -22.64 11.68 -24 11 C-24.375 8.75 -24.375 8.75 -24 6 C-16.97416295 -0.14760742 -8.84841768 -0.32637606 0 0 Z " fill="#F9F9FA" transform="translate(29,6)"/>
<path d="M0 0 C0.33 0 0.66 0 1 0 C2.08891703 7.7443779 2.18617972 15.4367114 2.18530273 23.2409668 C2.18751956 25.45705552 2.20581935 27.67266888 2.22460938 29.88867188 C2.22753854 31.29947748 2.22952652 32.71028542 2.23046875 34.12109375 C2.23457764 35.3939624 2.23868652 36.66683105 2.24291992 37.97827148 C2 41 2 41 0 43 C-2.15478516 43.22705078 -2.15478516 43.22705078 -4.7890625 43.1953125 C-5.73007812 43.18886719 -6.67109375 43.18242188 -7.640625 43.17578125 C-9.11789063 43.15064453 -9.11789063 43.15064453 -10.625 43.125 C-11.61757813 43.11597656 -12.61015625 43.10695312 -13.6328125 43.09765625 C-16.08878134 43.07404116 -18.54427168 43.04110799 -21 43 C-21 42.34 -21 41.68 -21 41 C-20.195625 40.690625 -19.39125 40.38125 -18.5625 40.0625 C-16.10919595 39.23664655 -16.10919595 39.23664655 -15 38 C-14.95936168 36.33382885 -14.957279 34.66611905 -15 33 C-16.134375 32.401875 -17.26875 31.80375 -18.4375 31.1875 C-21.875 29.375 -21.875 29.375 -23 26 C-23.07029121 23.42734182 -23.09370832 20.88358569 -23.0625 18.3125 C-23.05798828 17.61060547 -23.05347656 16.90871094 -23.04882812 16.18554688 C-23.03706927 14.45699462 -23.01913454 12.72848635 -23 11 C-21.13671875 10.375 -21.13671875 10.375 -19 10 C-17.9171875 10.99 -17.9171875 10.99 -16.8125 12 C-13.74739719 14.17962866 -13.02968802 14.30394215 -9.4375 14.0625 C-6.21867534 13.51621029 -5.08959069 13.07391232 -2.5 10.9375 C-0.57289361 7.16358332 -0.28591589 4.21725931 0 0 Z " fill="#0202FA" transform="translate(52,11)"/>
<path d="M0 0 C17.16 0 34.32 0 52 0 C52.495 1.98 52.495 1.98 53 4 C52.34 3.67 51.68 3.34 51 3 C49.49381737 2.90522655 47.98352593 2.87205645 46.47436523 2.87060547 C45.53676865 2.86745331 44.59917206 2.86430115 43.63316345 2.86105347 C42.61855545 2.8630777 41.60394745 2.86510193 40.55859375 2.8671875 C39.52058121 2.86623077 38.48256866 2.86527405 37.4131012 2.86428833 C35.21656229 2.86360708 33.02002138 2.86545756 30.82348633 2.86962891 C27.4480338 2.87498329 24.07271402 2.86967927 20.69726562 2.86328125 C18.56770804 2.86394193 16.43815053 2.8652229 14.30859375 2.8671875 C13.29196152 2.86516327 12.27532928 2.86313904 11.22789001 2.86105347 C10.29344559 2.86420563 9.35900116 2.86735779 8.39624023 2.87060547 C7.15619484 2.87179886 7.15619484 2.87179886 5.89109802 2.87301636 C3.98819724 2.79242148 3.98819724 2.79242148 3 4 C2.92820036 5.51928038 2.91607993 7.04167482 2.9375 8.5625 C2.94652344 9.38878906 2.95554688 10.21507812 2.96484375 11.06640625 C2.97644531 11.70449219 2.98804688 12.34257812 3 13 C3.66 13 4.32 13 5 13 C5 14.32 5 15.64 5 17 C5.9590625 17.2165625 5.9590625 17.2165625 6.9375 17.4375 C9 18 9 18 10 19 C10.12742501 21.76186306 10.18521705 24.48763449 10.1875 27.25 C10.19974609 28.01441406 10.21199219 28.77882813 10.22460938 29.56640625 C10.23552933 33.78150898 10.1296509 37.23596585 8 41 C7.01 41.66 6.02 42.32 5 43 C5.33 45.31 5.66 47.62 6 50 C8.97 50.99 11.94 51.98 15 53 C15 53.33 15 53.66 15 54 C12.87527424 54.05386629 10.75016348 54.09273071 8.625 54.125 C7.44164062 54.14820313 6.25828125 54.17140625 5.0390625 54.1953125 C2 54 2 54 0 52 C-0.24050903 49.78536987 -0.24050903 49.78536987 -0.22705078 46.99951172 C-0.22680908 45.94401123 -0.22656738 44.88851074 -0.22631836 43.80102539 C-0.21608643 42.68848389 -0.20585449 41.57594238 -0.1953125 40.4296875 C-0.19329834 39.4094751 -0.19128418 38.3892627 -0.18920898 37.33813477 C-0.17872316 33.51704429 -0.15080072 29.69601776 -0.125 25.875 C-0.08375 17.33625 -0.0425 8.7975 0 0 Z " fill="#575AFD" transform="translate(0,0)"/>
<path d="M0 0 C0.66 0 1.32 0 2 0 C2 18.15 2 36.3 2 55 C-16.15 55 -34.3 55 -53 55 C-52.67 54.01 -52.34 53.02 -52 52 C-51.67 52.33 -51.34 52.66 -51 53 C-48.32941149 53.14115161 -45.67567762 53.04247107 -43 53 C-44.65 52.01 -46.3 51.02 -48 50 C-47.67 49.34 -47.34 48.68 -47 48 C-46.38125 48.32484375 -45.7625 48.6496875 -45.125 48.984375 C-40.72638235 50.41392574 -36.59457965 50.28995287 -32 50.25 C-31.11054688 50.25773437 -30.22109375 50.26546875 -29.3046875 50.2734375 C-22.91088676 50.26840978 -22.91088676 50.26840978 -17 48 C-15.65589738 45.98264795 -15.65589738 45.98264795 -15 44 C-14.63724305 48.47400242 -14.63724305 48.47400242 -16.25 50.8125 C-18 52 -18 52 -22 52 C-22 52.66 -22 53.32 -22 54 C-18.52048477 53.86181468 -15.04149505 53.71317399 -11.5625 53.5625 C-10.56927734 53.52318359 -9.57605469 53.48386719 -8.55273438 53.44335938 C-7.60849609 53.40146484 -6.66425781 53.35957031 -5.69140625 53.31640625 C-4.37958374 53.26141968 -4.37958374 53.26141968 -3.04125977 53.20532227 C-1.0072598 53.21818934 -1.0072598 53.21818934 0 52 C0.09340434 50.37325222 0.11745171 48.74245949 0.11352539 47.11303711 C0.11344986 46.07203354 0.11337433 45.03102997 0.11329651 43.95848083 C0.10813522 42.8262056 0.10297394 41.69393036 0.09765625 40.52734375 C0.0962413 39.37456436 0.09482635 38.22178497 0.09336853 37.03407288 C0.08775005 33.33518936 0.07519442 29.63636536 0.0625 25.9375 C0.05748738 23.43684983 0.05292406 20.93619871 0.04882812 18.43554688 C0.03777462 12.29034412 0.02101852 6.14517631 0 0 Z " fill="#3032BD" transform="translate(53,0)"/>
<path d="M0 0 C4.875 0.875 4.875 0.875 6 2 C6.12742501 4.76186306 6.18521705 7.48763449 6.1875 10.25 C6.19974609 11.01441406 6.21199219 11.77882813 6.22460938 12.56640625 C6.23551506 16.7759995 6.22480402 20.30261796 4 24 C2.08898095 25.83696825 0.11739737 27.38893679 -2 29 C-2.0580772 24.91672643 -2.09362249 20.83355917 -2.125 16.75 C-2.14175781 15.59113281 -2.15851562 14.43226562 -2.17578125 13.23828125 C-2.18222656 12.12324219 -2.18867187 11.00820313 -2.1953125 9.859375 C-2.20578613 8.83295898 -2.21625977 7.80654297 -2.22705078 6.74902344 C-1.99836111 3.98015712 -1.4243299 2.35581208 0 0 Z " fill="#1617FD" transform="translate(4,17)"/>
<path d="M0 0 C0.33 0 0.66 0 1 0 C1.049377 4.52065428 1.08570823 9.04115217 1.10986328 13.56201172 C1.11993118 15.10045098 1.13358646 16.63887107 1.15087891 18.17724609 C1.17509317 20.38644133 1.18647491 22.59538395 1.1953125 24.8046875 C1.20563507 25.49432587 1.21595764 26.18396423 1.22659302 26.89450073 C1.22699478 28.59800906 1.12191026 30.30085943 1 32 C-1 34 -1 34 -3.15478516 34.22705078 C-4.02409668 34.21657715 -4.8934082 34.20610352 -5.7890625 34.1953125 C-6.73007812 34.18886719 -7.67109375 34.18242188 -8.640625 34.17578125 C-10.11789063 34.15064453 -10.11789063 34.15064453 -11.625 34.125 C-12.61757813 34.11597656 -13.61015625 34.10695312 -14.6328125 34.09765625 C-17.08878134 34.07404116 -19.54427168 34.04110799 -22 34 C-22 33.34 -22 32.68 -22 32 C-16.72184904 30.24061635 -11.81317069 29.64649432 -6.2578125 29.34375 C-5.51273438 29.2303125 -4.76765625 29.116875 -4 29 C-2.81577716 26.63155432 -2.82997692 25.06411405 -2.75390625 22.421875 C-2.72103516 21.50792969 -2.68816406 20.59398438 -2.65429688 19.65234375 C-2.59359647 17.7331777 -2.53624829 15.81390239 -2.48242188 13.89453125 C-2.29705242 8.9070437 -1.93862196 4.67780846 0 0 Z " fill="#2325FA" transform="translate(53,20)"/>
<path d="M0 0 C0.33 0 0.66 0 1 0 C1.02715383 1.74991334 1.04646551 3.49994945 1.0625 5.25 C1.07410156 6.22453125 1.08570312 7.1990625 1.09765625 8.203125 C1 11 1 11 0.50927734 12.86987305 C-0.05983107 15.25025221 -0.17640497 17.43322887 -0.24609375 19.87890625 C-0.27896484 20.79994141 -0.31183594 21.72097656 -0.34570312 22.66992188 C-0.40702109 24.60208996 -0.46429725 26.53439046 -0.51757812 28.46679688 C-0.55173828 29.38654297 -0.58589844 30.30628906 -0.62109375 31.25390625 C-0.6461499 32.09252197 -0.67120605 32.9311377 -0.69702148 33.79516602 C-1 36 -1 36 -3 39 C-5.49609375 39.51171875 -5.49609375 39.51171875 -8.4375 39.6875 C-9.40558594 39.75324219 -10.37367187 39.81898437 -11.37109375 39.88671875 C-13.24603587 39.9675112 -15.12331799 40 -17 40 C-16.34 39.34 -15.68 38.68 -15 38 C-14.35232207 35.42938689 -14.35232207 35.42938689 -14 33 C-13.67 33 -13.34 33 -13 33 C-13 34.65 -13 36.3 -13 38 C-7.98464948 37.67039784 -7.98464948 37.67039784 -4 35 C-3.63168919 33.06742145 -3.63168919 33.06742145 -3.5859375 30.8671875 C-3.54726563 30.06152344 -3.50859375 29.25585938 -3.46875 28.42578125 C-3.42234375 27.16314453 -3.42234375 27.16314453 -3.375 25.875 C-3.31699219 24.60076172 -3.31699219 24.60076172 -3.2578125 23.30078125 C-3.16343506 21.20088316 -3.08062414 19.10047109 -3 17 C-3.67546875 17.02320312 -4.3509375 17.04640625 -5.046875 17.0703125 C-6.38492188 17.09738281 -6.38492188 17.09738281 -7.75 17.125 C-8.63171875 17.14820312 -9.5134375 17.17140625 -10.421875 17.1953125 C-13.1135858 16.99139502 -14.69904974 16.36551721 -17 15 C-16.67 14.34 -16.34 13.68 -16 13 C-15.34 13.33 -14.68 13.66 -14 14 C-9.49486977 14.12176028 -6.02831538 13.84836019 -2.5 10.9375 C-0.57289361 7.16358332 -0.28591589 4.21725931 0 0 Z " fill="#1112F3" transform="translate(52,11)"/>
<path d="M0 0 C8.58 0 17.16 0 26 0 C26 0.66 26 1.32 26 2 C25.00419922 2.02126953 25.00419922 2.02126953 23.98828125 2.04296875 C17.98671628 2.29674709 17.98671628 2.29674709 13.125 5.625 C12.42375 6.40875 11.7225 7.1925 11 8 C8.6875 7.8125 8.6875 7.8125 7 7 C6.67 5.35 6.34 3.7 6 2 C3.03 1.505 3.03 1.505 0 1 C0 0.67 0 0.34 0 0 Z " fill="#181AFD" transform="translate(22,4)"/>
<path d="M0 0 C1.32 0.33 2.64 0.66 4 1 C4 7.27 4 13.54 4 20 C3.34 20.33 2.68 20.66 2 21 C1.34 20.67 0.68 20.34 0 20 C0 13.4 0 6.8 0 0 Z " fill="#0707FD" transform="translate(5,19)"/>
<path d="M0 0 C1.32 0.33 2.64 0.66 4 1 C3.67501022 1.5702037 3.35002045 2.14040741 3.0151825 2.72789001 C1.92608663 5.1654277 1.75201819 6.70399712 1.75708008 9.35375977 C1.75400345 10.2046669 1.75092682 11.05557404 1.74775696 11.93226624 C1.75494247 12.84278244 1.76212799 13.75329865 1.76953125 14.69140625 C1.76998947 15.63306137 1.77044769 16.57471649 1.7709198 17.54490662 C1.7739373 19.53279889 1.78180857 21.52068891 1.79418945 23.50854492 C1.81245269 26.55460973 1.814699 29.60037051 1.81445312 32.64648438 C1.81936835 34.57812763 1.82519669 36.50976883 1.83203125 38.44140625 C1.83314407 39.35394669 1.8342569 40.26648712 1.83540344 41.2066803 C1.84178329 42.05443527 1.84816315 42.90219025 1.85473633 43.77563477 C1.85854813 44.52079849 1.86235992 45.26596222 1.86628723 46.03370667 C1.93188576 48.21421557 1.93188576 48.21421557 3 51 C3.99 51.33 4.98 51.66 6 52 C6 52.66 6 53.32 6 54 C1.125 53.125 1.125 53.125 0 52 C-0.09340434 50.37325222 -0.11745171 48.74245949 -0.11352539 47.11303711 C-0.11344986 46.07203354 -0.11337433 45.03102997 -0.11329651 43.95848083 C-0.10813522 42.8262056 -0.10297394 41.69393036 -0.09765625 40.52734375 C-0.0962413 39.37456436 -0.09482635 38.22178497 -0.09336853 37.03407288 C-0.08775005 33.33518936 -0.07519442 29.63636536 -0.0625 25.9375 C-0.05748738 23.43684983 -0.05292406 20.93619871 -0.04882812 18.43554688 C-0.03777462 12.29034412 -0.02101852 6.14517631 0 0 Z " fill="#4448EC" transform="translate(0,0)"/>
<path d="M0 0 C0.33 0 0.66 0 1 0 C1.049377 4.52065428 1.08570823 9.04115217 1.10986328 13.56201172 C1.11993118 15.10045098 1.13358646 16.63887107 1.15087891 18.17724609 C1.17509317 20.38644133 1.18647491 22.59538395 1.1953125 24.8046875 C1.20563507 25.49432587 1.21595764 26.18396423 1.22659302 26.89450073 C1.22699478 28.59800906 1.12191026 30.30085943 1 32 C-1 34 -1 34 -3.15478516 34.22705078 C-4.02409668 34.21657715 -4.8934082 34.20610352 -5.7890625 34.1953125 C-6.73007812 34.18886719 -7.67109375 34.18242188 -8.640625 34.17578125 C-10.11789063 34.15064453 -10.11789063 34.15064453 -11.625 34.125 C-12.61757813 34.11597656 -13.61015625 34.10695312 -14.6328125 34.09765625 C-17.08878134 34.07404116 -19.54427168 34.04110799 -22 34 C-22 33.67 -22 33.34 -22 33 C-20.89140625 32.96261719 -19.7828125 32.92523438 -18.640625 32.88671875 C-17.17705026 32.82104552 -15.71351009 32.75459865 -14.25 32.6875 C-13.52039062 32.66494141 -12.79078125 32.64238281 -12.0390625 32.61914062 C-7.82501909 32.40843845 -4.95961082 32.14645494 -2 29 C-0.94163339 25.82490018 -0.79756211 23.35717617 -0.68359375 20.01953125 C-0.64169922 18.85615234 -0.59980469 17.69277344 -0.55664062 16.49414062 C-0.51732422 15.27919922 -0.47800781 14.06425781 -0.4375 12.8125 C-0.39431641 11.58595703 -0.35113281 10.35941406 -0.30664062 9.09570312 C-0.2004691 6.06391619 -0.09842048 3.03204685 0 0 Z " fill="#383BF8" transform="translate(53,20)"/>
<path d="M0 0 C1.65322266 0.01740234 1.65322266 0.01740234 3.33984375 0.03515625 C4.99693359 0.04869141 4.99693359 0.04869141 6.6875 0.0625 C7.54214844 0.07410156 8.39679687 0.08570313 9.27734375 0.09765625 C8.28734375 0.59265625 8.28734375 0.59265625 7.27734375 1.09765625 C7.27734375 1.75765625 7.27734375 2.41765625 7.27734375 3.09765625 C6.59027344 3.4121875 5.90320312 3.72671875 5.1953125 4.05078125 C3.84373047 4.69273438 3.84373047 4.69273438 2.46484375 5.34765625 C1.57152344 5.7653125 0.67820312 6.18296875 -0.2421875 6.61328125 C-2.83193956 8.16305414 -4.10446459 9.58166391 -5.72265625 12.09765625 C-6.85350569 8.60230344 -6.81206136 7.30897741 -5.34765625 3.84765625 C-3.14060548 0.11264726 -3.14060548 0.11264726 0 0 Z " fill="#1010FE" transform="translate(8.72265625,3.90234375)"/>
<path d="M0 0 C0.33 0 0.66 0 1 0 C1.36407767 4.49029126 1.36407767 4.49029126 -0.25 6.75 C-4.86179818 10.04414156 -11.02670816 9.2204933 -16.4375 9.25 C-17.37916016 9.270625 -18.32082031 9.29125 -19.29101562 9.3125 C-24.35104389 9.34106756 -27.88456977 9.32030465 -32 6 C-31.67 5.34 -31.34 4.68 -31 4 C-30.38125 4.32484375 -29.7625 4.6496875 -29.125 4.984375 C-24.72638235 6.41392574 -20.59457965 6.28995287 -16 6.25 C-15.11054688 6.25773437 -14.22109375 6.26546875 -13.3046875 6.2734375 C-6.90605613 6.27988156 -6.90605613 6.27988156 -1 4 C-0.11306697 1.95894361 -0.11306697 1.95894361 0 0 Z " fill="#1D1D7F" transform="translate(37,44)"/>
<path d="M0 0 C0.33 0 0.66 0 1 0 C1.56221257 11.88975473 1.56221257 11.88975473 -2 16 C-4.32595946 17.16297973 -5.78723231 17.16600691 -8.375 17.1875 C-9.53128906 17.20876953 -9.53128906 17.20876953 -10.7109375 17.23046875 C-13.21834888 16.97801607 -14.83261902 16.25193467 -17 15 C-16.67 14.34 -16.34 13.68 -16 13 C-15.34 13.33 -14.68 13.66 -14 14 C-9.49486977 14.12176028 -6.02831538 13.84836019 -2.5 10.9375 C-0.57289361 7.16358332 -0.28591589 4.21725931 0 0 Z " fill="#16168A" transform="translate(52,11)"/>
<path d="M0 0 C0.33 0 0.66 0 1 0 C1.25451584 4.10300923 1.47426446 8.20715476 1.6875 12.3125 C1.76033203 13.47974609 1.83316406 14.64699219 1.90820312 15.84960938 C1.96298828 16.96787109 2.01777344 18.08613281 2.07421875 19.23828125 C2.13182373 20.26993408 2.18942871 21.30158691 2.2487793 22.36450195 C2 25 2 25 0.49536133 26.86010742 C0.00189209 27.23627197 -0.49157715 27.61243652 -1 28 C-1.02898097 23.89584811 -1.0467922 19.79172247 -1.0625 15.6875 C-1.07087891 14.52025391 -1.07925781 13.35300781 -1.08789062 12.15039062 C-1.09111328 11.03212891 -1.09433594 9.91386719 -1.09765625 8.76171875 C-1.10289307 7.73006592 -1.10812988 6.69841309 -1.11352539 5.63549805 C-1 3 -1 3 0 0 Z " fill="#2223FE" transform="translate(3,18)"/>
<path d="M0 0 C0.66 0.33 1.32 0.66 2 1 C2 4.96 2 8.92 2 13 C1.67 12.34 1.34 11.68 1 11 C0.38125 10.690625 -0.2375 10.38125 -0.875 10.0625 C-3.05810535 8.97094732 -4.37010468 7.79288485 -6 6 C-5.34 6 -4.68 6 -4 6 C-3.67 4.68 -3.34 3.36 -3 2 C-2.01 2 -1.02 2 0 2 C0 1.34 0 0.68 0 0 Z " fill="#383BF2" transform="translate(52,0)"/>
<path d="M0 0 C2 0.3125 2 0.3125 4 1 C4.33 1.66 4.66 2.32 5 3 C3.68 3 2.36 3 1 3 C1 8.28 1 13.56 1 19 C-1.43929003 15.34106495 -1.26289673 12.59721667 -1.1875 8.375 C-1.18685547 7.68148438 -1.18621094 6.98796875 -1.18554688 6.2734375 C-1.14043257 1.14043257 -1.14043257 1.14043257 0 0 Z " fill="#404094" transform="translate(30,21)"/>
<path d="M0 0 C2 3 2 3 3 6 C5.09719872 7.02281518 5.09719872 7.02281518 7.5625 7.6875 C8.38878906 7.93886719 9.21507812 8.19023438 10.06640625 8.44921875 C10.70449219 8.63097656 11.34257812 8.81273437 12 9 C12 9.33 12 9.66 12 10 C9.03 10 6.06 10 3 10 C3 9.34 3 8.68 3 8 C1.68 7.67 0.36 7.34 -1 7 C-0.67 4.69 -0.34 2.38 0 0 Z " fill="#3134F3" transform="translate(3,44)"/>
<path d="M0 0 C3.875 0.875 3.875 0.875 5 2 C5.07325168 4.86267567 5.09238205 7.700719 5.0625 10.5625 C5.05798828 11.36880859 5.05347656 12.17511719 5.04882812 13.00585938 C5.03700518 15.00393756 5.01906914 17.00197783 5 19 C4.67 19 4.34 19 4 19 C4 13.72 4 8.44 4 3 C2.68 2.67 1.36 2.34 0 2 C0 1.34 0 0.68 0 0 Z " fill="#3434D5" transform="translate(5,17)"/>
<path d="M0 0 C0.33 1.32 0.66 2.64 1 4 C-5.27 4 -11.54 4 -18 4 C-18 3.67 -18 3.34 -18 3 C-16.86820313 2.95101562 -15.73640625 2.90203125 -14.5703125 2.8515625 C-13.08851661 2.77653486 -11.606747 2.70098703 -10.125 2.625 C-9.37863281 2.5940625 -8.63226563 2.563125 -7.86328125 2.53125 C-3.46526812 2.44356169 -3.46526812 2.44356169 0 0 Z " fill="#252781" transform="translate(54,51)"/>
<path d="M0 0 C0.66 0.33 1.32 0.66 2 1 C1.67 1.598125 1.34 2.19625 1 2.8125 C-0.20787988 5.05386471 -0.20787988 5.05386471 0 8 C-1.5 10.1875 -1.5 10.1875 -3 12 C-4.13084944 8.50464719 -4.08940511 7.21132116 -2.625 3.75 C-1 1 -1 1 0 0 Z " fill="#1B1DFE" transform="translate(6,4)"/>
<path d="M0 0 C0.99 0 1.98 0 3 0 C2.71125 0.556875 2.4225 1.11375 2.125 1.6875 C0.9586747 4.08494645 -0.0339881 6.51596939 -1 9 C-1.33 9 -1.66 9 -2 9 C-2.125 5.625 -2.125 5.625 -2 2 C-1.34 1.34 -0.68 0.68 0 0 Z " fill="#2D30FE" transform="translate(4,2)"/>
<path d="M0 0 C1.32 0.66 2.64 1.32 4 2 C1.03 4.475 1.03 4.475 -2 7 C-2.125 4.625 -2.125 4.625 -2 2 C-1.34 1.34 -0.68 0.68 0 0 Z " fill="#1313FC" transform="translate(34,5)"/>
<path d="M0 0 C0.99 0.33 1.98 0.66 3 1 C2.67 2.65 2.34 4.3 2 6 C1.01 5.67 0.02 5.34 -1 5 C-0.67 3.35 -0.34 1.7 0 0 Z " fill="#2222CE" transform="translate(30,6)"/>
<path d="M0 0 C0.66 0 1.32 0 2 0 C2.66 2.31 3.32 4.62 4 7 C2.02 5.68 0.04 4.36 -2 3 C-1.34 2.67 -0.68 2.34 0 2 C0 1.34 0 0.68 0 0 Z " fill="#2C2EF2" transform="translate(48,4)"/>
</svg>
