<svg version="1.1" xmlns="http://www.w3.org/2000/svg" xmlns:xlink="http://www.w3.org/1999/xlink" width="700" height="700" viewBox="410,175,520,520"><defs><clipPath id="clip-1"><rect x="426" y="185.5" width="500" height="500" id="clip-1" fill="none" stroke-width="1"/></clipPath><clipPath id="clip-2"><rect x="22.28453" y="-63.09825" transform="rotate(90) scale(12.93586,12.93586)" width="24" height="24" id="clip-2" fill="none"/></clipPath></defs><g fill="none" fill-rule="nonzero" stroke="none" stroke-width="none" stroke-linecap="butt" stroke-linejoin="miter" stroke-miterlimit="10" stroke-dasharray="" stroke-dashoffset="0" font-family="none" font-weight="none" font-size="none" text-anchor="none" style="mix-blend-mode: normal"><g><g id="stage"><g id="layer1 1"><g clip-path="url(#clip-1)" id="Group 1"><circle cx="688.579" cy="444.165" r="219.498" id="Shape 1" fill="#fd96a9" stroke-width="1" opacity="0.2"/><path d="M673.527,194.641c-133.189,0 -241.476,108.289 -241.476,241.478c0,133.189 108.287,241.476 241.476,241.476c133.19,0 241.476,-108.287 241.476,-241.476c0,-133.189 -108.286,-241.478 -241.476,-241.478M673.527,633.827c-108.947,0 -197.614,-88.666 -197.614,-197.614c0,-108.947 88.667,-197.616 197.614,-197.616c108.947,0 197.614,88.575 197.614,197.616c0,108.948 -88.667,197.614 -197.614,197.614" id="CompoundPath 1" fill="#fd96a9" stroke-width="1"/><path d="" id="Path 1" fill="#ff4b91" stroke-width="4"/><path d="M117.65819,483.58962l-18.40732,-12.23549l92.77574,-132.16827l84.96726,-14.982l3.87044,21.95039l-75.62735,13.33512zM234.4318,603.29473l-116.53934,-81.6009l100.8393,-141.95213l98.9279,-17.44364l17.17848,97.4241zM265.8098,436.36088c8.82993,6.18365 20.97568,4.01969 27.16106,-4.80039c6.18266,-8.82975 4.04037,-20.97933 -4.78956,-27.16297c-8.83074,-6.18249 -20.98031,-4.04019 -27.16297,4.78956c-6.18347,8.83091 -4.03736,21.00215 4.79147,27.17381zM199.20946,498.13235l31.9765,-45.64004l-9.12649,-6.3913l-31.97731,45.64119zM204.68233,529.17054l44.75859,-63.89597l-9.12747,-6.39113l-44.75859,63.89597zM222.96068,541.95883l44.73519,-63.902l-9.12747,-6.39113l-44.73519,63.902z" id="CompoundPath 1" fill="#fd96a9" stroke-width="1"/></g><g clip-path="url(#clip-2)" id="Group 1" stroke-width="1"><path d="M537.28139,438.35153l-18.5759,-17.69626l132.6961,-132.38564h100.14947v25.87173h-89.14104zM646.64119,598.73038l-116.77205,-116.77205l143.88562,-141.94524h116.60389v114.83167zM716.15853,414.22614c8.84813,8.84813 23.16813,8.82226 32.01627,-0.01294c8.84813,-8.84813 8.84813,-23.16813 0,-32.01627c-8.84813,-8.84813 -23.16813,-8.84813 -32.01627,0c-8.84813,8.84813 -8.84813,23.19401 0,32.0292zM627.57373,471.4156l45.75415,-45.72828l-9.14566,-9.14566l-45.75415,45.72828zM627.57373,507.99822l64.04547,-64.01959l-9.14566,-9.14566l-64.04547,64.01959zM645.89091,526.30247l64.01959,-64.03253l-9.14566,-9.14566l-64.01959,64.03253z" id="CompoundPath 1" fill="#fd96a9"/></g></g></g></g></g></svg>