<svg width="525" height="120" viewBox="0 0 525 120" fill="none" xmlns="http://www.w3.org/2000/svg">
<path d="M328.877 27.8201C331.351 27.3755 334.116 27.6147 336.631 27.6229C336.745 27.7989 336.843 27.9941 336.899 28.1971C337.301 29.6651 337.147 47.2806 336.934 49.616C336.884 50.1752 336.681 50.7037 336.413 51.1932C338.48 49.8687 339.861 47.4653 342.008 46.0477C345.542 43.7145 350.552 43.1964 354.626 44.0438C359.435 45.0443 363.387 47.7831 366.064 51.8973C370.501 58.7156 370.802 67.7823 369.156 75.5271C368.533 78.4637 366.873 84.291 364.197 86.0252C364.198 86.2027 364.166 86.313 364.076 86.4646C362.248 89.5572 358.347 91.4674 354.979 92.3191C350.428 93.4704 343.59 93.3246 339.985 89.907C338.658 88.6491 337.584 86.7466 336.011 85.825C335.989 85.8122 335.967 85.7994 335.945 85.7869C336.127 86.0525 336.282 86.35 336.366 86.6619C336.714 87.9432 336.785 90.5697 336.106 91.7303L328.701 91.7762C328.709 91.7609 328.719 91.7458 328.727 91.7303C328.74 91.7042 328.752 91.6771 328.766 91.6512C328.824 91.5403 328.884 91.4352 328.936 91.3201C329.355 90.3809 329.57 29.636 328.877 27.8201ZM356.39 52.7049C353.503 50.7075 349.87 50.417 346.48 50.8973C343.029 52.0428 340.696 53.6971 339.032 57.0154C336.238 62.5841 335.63 71.4337 337.601 77.3426C338.685 80.5927 340.707 83.4305 343.829 84.9949C346.064 86.1146 349.067 86.6252 351.507 86.0428C354.482 85.5278 356.838 84.0275 358.57 81.5652C362.299 76.2647 362.61 67.9449 361.513 61.784C360.888 58.2711 359.417 54.8 356.39 52.7049Z" fill="#323840"/>
<path d="M67.3172 10.1073C67.7513 10.0841 68.1856 10.0712 68.6203 10.0687C69.055 10.0662 69.4896 10.074 69.9239 10.0922C70.3582 10.1105 70.7918 10.139 71.2248 10.1779C71.6577 10.2168 72.0895 10.2659 72.5201 10.3254C72.9507 10.3849 73.3797 10.4546 73.807 10.5345C74.2343 10.6144 74.6594 10.7045 75.0824 10.8047C75.5054 10.9049 75.9258 11.0151 76.3435 11.1354C76.7612 11.2557 77.1759 11.3858 77.5874 11.5258C77.999 11.6658 78.407 11.8156 78.8114 11.9751C79.2158 12.1346 79.6162 12.3036 80.0125 12.4821C80.4088 12.6607 80.8007 12.8486 81.1881 13.0458C81.5755 13.2431 81.958 13.4494 82.3355 13.6649C82.7131 13.8804 83.0853 14.1048 83.4521 14.338C83.819 14.5713 84.1801 14.8131 84.5355 15.0636C84.8908 15.3141 85.24 15.5728 85.583 15.8399C85.926 16.107 86.2625 16.3822 86.5923 16.6653C92.8459 22.0353 95.461 29.1007 96.0809 37.115C98.7183 36.1521 101.578 35.5908 104.389 35.6021C110.311 35.6258 116.21 38.2346 120.362 42.4307C120.615 42.6897 120.861 42.9547 121.101 43.2257C121.341 43.4968 121.574 43.7735 121.8 44.0558C122.027 44.3381 122.246 44.6258 122.458 44.9188C122.671 45.2118 122.876 45.5098 123.074 45.8128C123.272 46.1158 123.462 46.4234 123.645 46.7357C123.828 47.048 124.004 47.3645 124.171 47.6853C124.338 48.0061 124.498 48.3308 124.65 48.6593C124.802 48.9879 124.946 49.32 125.081 49.6555C125.216 49.991 125.344 50.3297 125.463 50.6714C125.582 51.0131 125.693 51.3576 125.796 51.7047C125.898 52.0518 125.992 52.4013 126.077 52.753C126.162 53.1047 126.239 53.4582 126.308 53.8137C126.376 54.1692 126.435 54.5261 126.486 54.8844C126.537 55.2427 126.58 55.6021 126.613 55.9625C126.646 56.3228 126.671 56.6838 126.687 57.0454C126.703 57.407 126.71 57.7688 126.708 58.1307C126.705 58.6909 126.682 59.2502 126.637 59.8086C126.592 60.367 126.527 60.923 126.442 61.4766C126.356 62.0302 126.25 62.5798 126.123 63.1255C125.996 63.6712 125.85 64.2115 125.683 64.7463C125.516 65.2811 125.33 65.809 125.125 66.33C124.919 66.851 124.694 67.3636 124.45 67.8679C124.206 68.3722 123.944 68.8668 123.663 69.3516C123.383 69.8364 123.085 70.3101 122.769 70.7728C119.956 74.8881 115.789 78.1392 111.033 79.6745C105.024 81.6146 97.5713 80.8539 91.3052 80.8471L72.7767 80.8083C69.5215 80.7938 65.6754 80.4002 62.5113 81.1301C61.4568 81.3733 60.5506 81.9866 59.7933 82.7444C56.6588 85.8808 57.8903 96.9907 57.8681 101.411C58.9958 99.5628 60.0917 97.6581 61.3342 95.8852C61.9356 95.0272 62.8837 93.7756 63.9834 93.5955C64.5227 93.5072 65.0177 93.6007 65.4594 93.9404C65.999 94.3555 66.2591 94.8148 66.3561 95.4868C65.9782 97.3732 58.6952 108.144 57.1343 109.79C56.6087 110.345 56.2135 110.457 55.4745 110.478C54.824 109.946 54.2901 109.324 53.7728 108.666C51.7363 106.077 47.1151 99.6011 45.9148 96.7663C45.6961 96.2499 45.5901 95.5151 45.6743 94.9592C45.7654 94.3584 45.9806 94.1176 46.4392 93.77C46.7629 93.6892 47.0954 93.6355 47.4273 93.6916C50.1917 94.1591 52.3384 99.1018 53.8359 101.266C53.424 96.9566 52.9909 87.2475 54.3405 83.3524C55.4083 80.271 57.9942 78.0678 61.0622 77.0981C64.5643 75.9913 68.791 76.4425 72.4385 76.4578L94.1911 76.5113C98.2512 76.5176 102.561 76.8116 106.59 76.2927C107.588 76.1659 108.569 75.9591 109.534 75.6722C110.498 75.3853 111.433 75.0221 112.338 74.5826C112.869 74.3189 113.385 74.03 113.888 73.7159C114.391 73.4018 114.877 73.064 115.346 72.7025C115.816 72.341 116.267 71.9576 116.699 71.5521C117.131 71.1467 117.543 70.7212 117.934 70.2756C118.325 69.8301 118.693 69.3666 119.038 68.8851C119.384 68.4036 119.706 67.9065 120.003 67.3937C120.3 66.881 120.572 66.355 120.817 65.8157C121.063 65.2764 121.282 64.7265 121.475 64.1658C121.674 63.6005 121.845 63.0265 121.987 62.444C122.129 61.8615 122.242 61.2733 122.325 60.6795C122.408 60.0857 122.46 59.4892 122.483 58.8901C122.506 58.291 122.499 57.6922 122.462 57.0938C122.425 56.4954 122.357 55.9004 122.26 55.3087C122.163 54.717 122.037 54.1317 121.881 53.5527C121.725 52.9738 121.541 52.4041 121.328 51.8437C121.115 51.2832 120.874 50.7349 120.606 50.1987C120.347 49.6632 120.061 49.1419 119.75 48.6348C119.439 48.1277 119.104 47.6374 118.744 47.1637C118.384 46.69 118.001 46.2354 117.596 45.7999C117.191 45.3644 116.765 44.95 116.318 44.5569C115.871 44.1638 115.406 43.7938 114.923 43.447C114.44 43.1003 113.94 42.7784 113.425 42.4813C112.91 42.1843 112.381 41.9136 111.838 41.6693C111.296 41.4249 110.743 41.2081 110.179 41.0189C105.311 39.3514 100.296 39.8687 95.7191 42.1173C95.6004 42.7846 95.4594 43.4472 95.2962 44.1051C95.1331 44.7629 94.948 45.4145 94.7411 46.06C94.5342 46.7054 94.3059 47.3432 94.0562 47.9733C93.8065 48.6034 93.5359 49.2245 93.2446 49.8364C92.9532 50.4483 92.6416 51.0498 92.3099 51.6408C91.9782 52.2319 91.627 52.8111 91.2564 53.3785C90.8858 53.946 90.4966 54.5004 90.0888 55.0417C89.681 55.583 89.2555 56.1101 88.8123 56.6228C87.4638 58.1533 85.4731 60.2045 83.3204 60.3056C82.62 60.3385 82.2572 60.1247 81.7638 59.6648C81.6816 59.4085 81.6138 59.1284 81.625 58.8571C81.705 56.9269 83.5948 55.5998 84.9044 54.4414C88.8827 50.5049 91.4342 44.7112 91.6287 39.1198C91.8522 32.6968 89.6833 26.4588 85.275 21.7507C85.0117 21.4743 84.7419 21.2045 84.4653 20.9412C84.1889 20.678 83.9061 20.4217 83.617 20.1724C83.328 19.9231 83.0331 19.6809 82.7321 19.446C82.4313 19.2111 82.1248 18.9837 81.8128 18.7638C81.5007 18.5439 81.1835 18.3317 80.8611 18.1274C80.5387 17.923 80.2115 17.7266 79.8795 17.5383C79.5474 17.35 79.211 17.1699 78.8702 16.9981C78.5294 16.8262 78.1845 16.6628 77.8357 16.5078C77.4869 16.3529 77.1344 16.2065 76.7784 16.0688C76.4224 15.9311 76.0632 15.8022 75.7009 15.6821C75.3386 15.562 74.9736 15.4508 74.6058 15.3486C74.2381 15.2463 73.868 15.1532 73.4957 15.0691C73.1234 14.985 72.7492 14.91 72.3733 14.8442C71.9973 14.7784 71.6199 14.7219 71.2411 14.6746C70.8624 14.6273 70.4827 14.5893 70.1021 14.5606C69.7215 14.5319 69.3404 14.5126 68.9588 14.5025C68.6377 14.491 68.3166 14.4861 67.9953 14.4879C67.674 14.4898 67.353 14.4983 67.0321 14.5136C66.7112 14.5289 66.3907 14.5508 66.0707 14.5795C65.7507 14.6082 65.4314 14.6435 65.1129 14.6856C64.7944 14.7276 64.477 14.7762 64.1605 14.8315C63.844 14.8868 63.5288 14.9486 63.2149 15.0171C62.901 15.0856 62.5886 15.1605 62.2779 15.242C61.9671 15.3235 61.6582 15.4115 61.3511 15.5059C61.044 15.6003 60.739 15.7011 60.4361 15.8083C60.1332 15.9154 59.8327 16.0289 59.5346 16.1486C59.2365 16.2683 58.941 16.3942 58.6481 16.5263C58.3552 16.6584 58.0652 16.7965 57.7781 16.9406C57.491 17.0848 57.207 17.2349 56.9261 17.391C56.6453 17.5471 56.3678 17.7089 56.0937 17.8766C55.8196 18.0442 55.5492 18.2175 55.2823 18.3965C55.0155 18.5754 54.7525 18.7599 54.4934 18.9498C54.2342 19.1397 53.9791 19.335 53.7282 19.5357C53.4772 19.7363 53.2305 19.942 52.9881 20.1529C52.7457 20.3638 52.5079 20.5797 52.2745 20.8006C52.0411 21.0215 51.8125 21.2471 51.5885 21.4775C51.3646 21.7079 51.1455 21.9429 50.9314 22.1825C50.7173 22.422 50.5082 22.666 50.3043 22.9143C50.1004 23.1626 49.9017 23.415 49.7083 23.6716C49.5149 23.9282 49.327 24.1887 49.1444 24.4532C48.9619 24.7177 48.785 24.9858 48.6137 25.2577C48.4424 25.5296 48.2768 25.8049 48.117 26.0836C47.9572 26.3624 47.8033 26.6444 47.6552 26.9296C47.5072 27.2148 47.3652 27.503 47.2292 27.7941C47.0932 28.0852 46.9633 28.3791 46.8396 28.6757C46.716 28.9722 46.5985 29.2712 46.4872 29.5727C46.376 29.8742 46.2711 30.1779 46.1726 30.4837C46.074 30.7896 45.9819 31.0974 45.8962 31.4071C45.2956 33.4988 45.6232 38.8637 44.1802 40.2233C42.5277 41.171 39.0235 40.0185 37.1022 39.9372C32.8825 39.7587 27.9822 41.967 24.9182 44.8054C24.4725 45.2194 24.0483 45.6543 23.6454 46.11C23.2425 46.5658 22.863 47.0403 22.5069 47.5335C22.1508 48.0267 21.8197 48.5362 21.5138 49.062C21.2079 49.5878 20.9286 50.1274 20.6758 50.6807C20.423 51.234 20.198 51.7985 20.0009 52.374C19.8037 52.9495 19.6353 53.5333 19.4957 54.1254C19.356 54.7175 19.2458 55.3151 19.165 55.918C19.0842 56.521 19.0332 57.1265 19.0121 57.7345C18.9944 58.3283 19.0057 58.9216 19.046 59.5143C19.0863 60.107 19.1554 60.6963 19.2533 61.2822C19.3512 61.8681 19.4775 62.4479 19.6322 63.0215C19.7868 63.5951 19.969 64.1598 20.1788 64.7156C20.3887 65.2713 20.6251 65.8155 20.8881 66.3481C21.1512 66.8808 21.4396 67.3993 21.7533 67.9037C22.0671 68.4081 22.4047 68.896 22.7661 69.3674C23.1276 69.8388 23.5112 70.2914 23.9169 70.7253C27.3361 74.3736 31.5141 76.0904 36.4578 76.239C39.9763 76.3447 44.7585 76.8571 47.498 74.2366C48.2682 73.4999 48.7881 72.5941 49.0623 71.5661C49.9832 68.1144 49.3943 59.8381 49.4726 55.7805C47.5269 57.9687 46.2627 61.7302 43.9358 63.4189C43.4607 63.7637 42.9915 63.9173 42.401 63.806C41.6714 63.6685 41.3335 63.2455 40.9438 62.6723C40.7691 61.6582 40.9817 60.8793 41.4307 59.9626C42.4166 57.9499 48.4223 48.9618 49.8581 47.3416C50.2608 46.8872 50.6691 46.5931 51.2468 46.3976C51.8011 46.4996 52.1843 46.9207 52.5738 47.2997C54.639 49.3092 61.8851 59.4701 61.8597 62.0381C61.8524 62.7834 61.5722 63.0935 61.0661 63.5969C60.6458 63.7404 60.2638 63.8758 59.8157 63.7984C57.7932 63.4491 54.8227 57.6442 53.5523 55.787C53.7 60.4689 53.9281 65.4925 53.5763 70.1546C53.3554 73.0824 52.1618 75.8066 49.9011 77.7304C45.9568 81.087 38.165 80.7523 33.1378 80.336C27.9241 79.9042 22.6468 76.685 19.3202 72.7377C15.3732 68.0543 13.6121 62.0479 14.1497 55.9616C14.1829 55.5933 14.2252 55.226 14.2765 54.8597C14.3278 54.4934 14.3882 54.1287 14.4576 53.7654C14.527 53.4021 14.6053 53.0408 14.6926 52.6814C14.7798 52.322 14.8759 51.965 14.9808 51.6103C15.0857 51.2556 15.1993 50.9038 15.3216 50.5548C15.4439 50.2057 15.5747 49.8599 15.7141 49.5174C15.8535 49.1749 16.0013 48.836 16.1574 48.5007C16.3135 48.1654 16.4779 47.8342 16.6504 47.5071C16.8229 47.18 17.0034 46.8574 17.1919 46.5392C17.3804 46.221 17.5766 45.9077 17.7805 45.5992C17.9845 45.2907 18.196 44.9874 18.4149 44.6894C18.6338 44.3914 18.86 44.099 19.0934 43.8121C19.3269 43.5252 19.5672 43.2443 19.8145 42.9694C20.0618 42.6945 20.3158 42.4258 20.5763 42.1634C20.8369 41.901 21.1038 41.6452 21.377 41.396C21.6503 41.1469 21.9295 40.9046 22.2147 40.6692C27.6743 36.1043 33.7949 35.0712 40.6994 35.6849C41.3317 29.7528 43.6881 23.9543 47.6192 19.4444C52.7165 13.5963 59.6836 10.6194 67.3172 10.1073Z" fill="#FE5923"/>
<path d="M297.884 43.6671C303.411 43.3829 308.948 45.0449 313.072 48.7941C318.071 53.3397 320.403 60.1036 320.7 66.7267C321.016 73.7616 319.205 81.2829 314.347 86.5734C310.508 90.754 305.707 92.5983 300.118 92.8419L300.014 92.8556C295.375 93.4378 290.079 91.7377 286.413 88.9249C281.371 85.0568 278.499 78.8001 277.685 72.6007C276.743 65.4322 278.138 57.3827 282.622 51.5578C286.474 46.5518 291.154 44.5208 297.286 43.7179C297.484 43.6953 297.684 43.6781 297.884 43.6671ZM306.223 52.5802C303.049 50.3864 299.708 50.3053 296.003 50.6408C292.081 52.12 289.321 54.1928 287.557 58.0812C284.901 63.9367 284.853 71.5461 287.113 77.5314C288.335 80.7674 290.576 83.7569 293.806 85.1867C295.832 86.0833 299.358 86.6428 301.511 85.9083C304.736 85.3394 307.305 83.7446 309.205 81.0343C312.623 76.1586 313.274 69.1795 312.258 63.4523C311.539 59.3949 309.721 54.9984 306.223 52.5802Z" fill="#323840"/>
<path d="M398.196 43.662C403.03 43.6695 408.811 44.7123 412.353 48.2831C416.355 52.3181 415.791 57.6329 415.77 62.8378C415.756 66.0563 415.174 84.4973 416.444 85.7782C417.737 86.6302 419.033 86.3477 420.459 86.0858C420.492 86.1418 420.525 86.1978 420.554 86.2558C421.186 87.5221 420.975 90.5005 420.526 91.831C420.503 91.847 420.482 91.8658 420.457 91.8788C418.575 92.8544 415.357 92.7372 413.307 92.3329C408.77 91.4382 409.724 88.1428 407.985 85.5985L407.947 85.5438C407.564 86.3903 406.87 87.0041 406.199 87.62C401.891 91.5758 396.337 93.2055 390.548 92.9501C386.528 92.7727 382.889 91.5472 380.142 88.4999C379.283 87.5469 378.596 86.4636 377.727 85.5126C377.899 84.8414 377.471 83.7091 377.329 83.0194C376.498 79.0026 376.765 75.0909 378.914 71.5136C383.994 63.0578 396.095 65.3434 404.214 63.2851C405.551 62.9459 406.809 62.2651 407.515 61.0399C408.439 59.4383 408.266 57.3331 407.795 55.6161C407.316 53.8678 406.209 52.569 404.64 51.6854C401.298 49.8042 395.99 49.7951 392.367 50.8241C389.3 51.6953 387.798 54.0517 386.86 56.955C386.612 57.723 386.58 58.4656 386.176 59.1835L386.149 59.2304L378.639 59.2606C379.602 58.071 379.372 53.1366 382.244 49.5106C385.613 45.2583 390.784 44.2991 395.886 43.7177C396.652 43.67 397.428 43.6608 398.196 43.662ZM407.803 68.4472C407.395 68.2535 407.284 68.2869 406.847 68.3329C406.816 68.3572 406.786 68.3826 406.755 68.4062C402.291 71.826 386.448 68.4256 384.994 77.2645C384.623 79.5231 385.211 81.5074 386.276 83.4804C386.468 83.8357 386.911 84.3681 386.995 84.744C390.952 86.7677 394.773 86.9737 398.996 85.5995C402.268 84.5348 405.378 82.5235 406.975 79.3817C407.855 77.6482 408.428 70.3849 407.823 68.5058C407.817 68.4862 407.81 68.4667 407.803 68.4472Z" fill="#323840"/>
<path d="M172.698 43.7179C177.782 43.3963 183.91 44.1784 187.976 47.5206C189.85 49.0617 191.169 51.0692 191.809 53.4171C192.557 56.164 192.299 59.251 192.292 62.0763L192.235 76.4366C192.223 78.9187 192.027 81.571 192.281 84.0333C192.348 84.6876 192.51 85.436 193.061 85.8595C194.15 86.6969 195.949 86.3056 197.201 86.1046C197.249 86.198 197.294 86.2919 197.331 86.3907C197.787 87.6109 197.623 90.7042 197.103 91.8976C195.002 92.4938 192.444 92.9019 190.263 92.547C185.726 91.8088 186.167 88.0937 184.324 85.5655L184.279 85.504C184.164 86.3629 183.338 87.048 182.738 87.6271C178.696 91.5264 172.884 93.08 167.386 92.9679C162.866 92.8756 159.351 91.4989 156.308 88.0714C155.588 87.2598 155.097 86.3039 154.337 85.5138C154.563 84.4568 153.635 81.8762 153.501 80.6378C153.194 77.7736 153.578 75.1549 154.863 72.5655C160.722 60.7563 179.549 66.7929 183.719 61.5265C184.726 60.2546 184.818 58.6223 184.628 57.0724C184.398 55.1942 183.778 53.6661 182.245 52.4884C179.256 50.1931 174.955 49.8036 171.313 50.3077C167.864 50.785 164.832 52.5276 163.721 55.9601C163.378 57.0209 163.149 58.325 162.463 59.2189C162.451 59.2343 162.439 59.2494 162.427 59.2648L155.129 59.2316C156.34 57.7175 155.986 52.8242 158.992 49.2374C162.378 45.1977 167.717 44.1673 172.698 43.7179ZM183.512 68.3614C178.041 71.7339 163.515 68.7099 161.614 76.6896C161.016 79.2022 161.627 81.6439 162.973 83.7882C163.166 84.0944 163.526 84.4925 163.631 84.8302C167.62 86.7958 171.519 86.9555 175.725 85.5265C178.908 84.4449 181.988 82.4457 183.495 79.3429C184.62 77.0288 184.786 70.9254 184.376 68.3966L183.557 68.3331C183.542 68.3425 183.527 68.3522 183.512 68.3614Z" fill="#323840"/>
<path d="M491.77 43.718C495.305 43.4032 499.019 43.9185 502.253 45.4055C506.857 47.5221 509.973 51.6342 511.696 56.3089C512.783 59.2561 514.926 67.9786 513.612 70.8216C502.224 70.8119 490.593 70.3819 479.227 70.9749C480.494 72.9086 480.499 77.1908 481.678 79.7669C482.886 82.4044 484.764 84.2189 487.504 85.2356C491.107 86.5721 495.238 86.7705 498.776 85.1409C502.243 83.5438 504.388 80.8537 505.687 77.3118L506.223 77.1497C508.473 77.1388 510.727 77.1841 512.977 77.2044C513.042 77.4043 513.095 77.6068 513.12 77.8157C513.366 79.863 510.805 83.8528 509.609 85.4456C506.595 89.4559 502.499 91.9866 497.515 92.6809C491.264 93.5514 484.969 92.9178 479.817 89.0198C475.073 85.4302 472.569 79.7178 471.769 73.9446C470.729 66.4497 472.119 57.6149 476.772 51.4729C480.606 46.4128 485.669 44.5594 491.77 43.718ZM498.732 51.8509C496.128 50.7097 493.304 50.5455 490.512 50.8977C487.194 51.9364 483.87 53.6332 482.184 56.8421C481.197 58.7194 480.089 63.5639 479.306 64.6057L494.687 64.635C498.308 64.6341 502.042 64.4394 505.649 64.6878C506.279 63.2716 505.14 59.5603 504.59 58.138C503.51 55.3421 501.499 53.0637 498.732 51.8509Z" fill="#323840"/>
<path d="M443.397 43.7179C447.07 43.4248 451.14 43.8977 454.53 45.3854C458.086 46.9457 460.785 49.7055 462.192 53.3355C462.725 54.7111 463.422 56.7973 462.806 58.1903C460.364 58.3045 457.886 58.2131 455.441 58.208C455.469 58.0988 455.49 57.9892 455.493 57.8761C455.543 56.2174 455.007 54.601 453.852 53.3934C451.765 51.2111 448.435 50.507 445.522 50.4375C442.57 50.367 439.088 50.8279 436.879 52.9721C435.765 54.0544 435.181 55.4916 435.174 57.0424C435.165 58.7865 436.003 60.1495 437.432 61.1062C439.261 62.3305 441.576 62.8094 443.682 63.3297C449.541 64.7777 457.739 65.8132 462.092 70.2799C463.991 72.228 464.689 74.7103 464.66 77.3806C464.616 81.3939 463.535 85.0142 460.598 87.8727C456.047 92.3026 450.124 93.0286 444.058 92.943C443.068 92.8795 442.073 92.8146 441.089 92.6922C434.754 91.9052 428.163 88.5806 426.794 81.753C426.521 80.3865 426.588 77.8796 425.745 76.822C425.732 76.8065 425.719 76.7915 425.707 76.7763C428.257 76.7293 430.81 76.7318 433.36 76.7126C434.534 79.4317 434.482 82.0826 437.102 84.1055C439.891 86.2591 445.191 86.538 448.583 86.1061C451.053 85.7917 453.898 84.9165 455.462 82.8593C456.435 81.579 457.283 79.6631 457.039 78.021C456.112 71.7927 437.635 71.3113 431.69 66.9138C429.526 65.3135 428.056 63.0854 427.672 60.3988C427.164 56.8342 428.366 52.5371 430.529 49.6745C433.618 45.5865 438.581 44.3805 443.397 43.7179Z" fill="#323840"/>
<path d="M205.601 45.2556C207.873 44.6404 211.028 45.0249 213.394 45.0419C215.144 47.7033 211.754 77.043 215.202 82.6053C216.302 84.3813 218.405 85.688 220.413 86.1514C223.327 86.8242 226.71 86.1403 229.228 84.5665C232.412 82.5759 234.285 79.1647 235.11 75.579C235.729 72.8841 236.091 46.3629 235.276 45.06L243.095 45.0492C243.26 45.3072 243.394 45.6028 243.449 45.9057C243.771 47.6851 243.872 57.3297 243.05 58.5897C243.213 58.8218 243.347 59.0897 243.404 59.3694C243.93 61.9325 243.511 67.6775 243.513 70.497C243.52 77.1182 243.91 83.9972 243.47 90.5936C243.441 91.0319 243.326 91.373 243.086 91.743L235.627 91.7599C235.635 91.7447 235.644 91.7298 235.651 91.7144C235.664 91.6887 235.675 91.6622 235.688 91.6367C235.814 91.3861 235.94 91.1432 235.993 90.8645C236.325 89.1022 236.296 85.9213 235.283 84.3835C235.29 84.4925 235.284 84.5973 235.284 84.7062C235.282 85.0863 235.256 85.3825 235.091 85.7297C233.651 88.7606 230.651 90.9321 227.544 92.0216C223.156 93.5605 217.248 93.3701 213.044 91.3356C210.238 89.9777 208.004 87.6827 206.902 84.7366C205.115 79.9593 205.937 58.8197 205.935 52.5117C205.935 50.4423 206.316 47.2446 205.624 45.3165C205.617 45.2961 205.609 45.2759 205.601 45.2556Z" fill="#323840"/>
<path d="M256.785 32.1791C259.263 31.8481 261.912 32.0339 264.413 32.0402C264.513 32.2052 264.599 32.3731 264.663 32.5556C265.219 34.1433 265.117 43.6395 264.454 45.0484L272.078 45.0591C272.176 45.2115 272.259 45.367 272.312 45.5409C272.704 46.8348 272.54 50.3681 271.91 51.5151L264.427 51.5121C264.47 51.5854 264.473 51.586 264.504 51.654C264.517 51.6821 264.529 51.7108 264.542 51.739C265.44 53.7055 264.743 75.8691 264.781 79.9488C264.795 81.443 264.89 83.5906 266.042 84.6886C267.339 85.926 270.363 85.5145 271.996 85.4758C272.116 85.6537 272.218 85.8412 272.266 86.0524C272.539 87.2397 272.594 89.5922 271.918 90.6429C272.048 90.9139 272.085 91.2004 272.137 91.4937C272.082 91.5321 272.026 91.5709 271.968 91.6055C270.004 92.7765 265.031 92.3601 262.847 91.8172C260.715 91.287 259.371 90.6127 258.328 88.5726C256.113 84.2407 257.093 63.1537 257.109 57.5372C257.114 55.895 257.47 52.8948 256.637 51.5064L250.209 51.5145C250.368 51.2892 250.501 51.0319 250.558 50.7599C250.851 49.3427 250.938 46.2597 250.192 45.0435L256.651 45.0285C256.695 44.9539 256.697 44.9556 256.729 44.8867C256.742 44.8586 256.755 44.83 256.768 44.8018C257.509 43.2191 257.299 33.8183 256.785 32.1791Z" fill="#323840"/>
</svg>
