<?xml version="1.0" encoding="UTF-8"?>
<svg version="1.1" xmlns="http://www.w3.org/2000/svg" width="256" height="256">
<path d="M0 0 C2.92865108 1.49231961 5.77885358 3.08069784 8.62744141 4.72070312 C9.68116943 5.30980469 10.73489746 5.89890625 11.82055664 6.50585938 C15.03719856 8.31013446 18.23962512 10.13765811 21.43994141 11.97070312 C23.24950738 12.99732643 25.05938399 14.02340246 26.86962891 15.04882812 C30.30929457 17.00325012 33.74207395 18.9691362 37.17041016 20.94335938 C42.70225194 24.12735447 48.25667747 27.27061736 53.81494141 30.40820312 C54.76425537 30.94469482 55.71356934 31.48118652 56.69165039 32.03393555 C61.64034172 34.8296764 66.59266343 37.618789 71.54931641 40.40039062 C88.9079212 50.15150512 88.9079212 50.15150512 96.18994141 54.53320312 C97.15416016 55.11199219 98.11837891 55.69078125 99.11181641 56.28710938 C102.53796332 58.76474246 104.10829759 60.97577167 105.43994141 64.97070312 C105.54232257 66.48562819 105.59038565 68.00454627 105.60488892 69.52285767 C105.61612289 70.45636047 105.62735687 71.38986328 105.63893127 72.35165405 C105.64625778 73.37401154 105.65358429 74.39636902 105.66113281 75.44970703 C105.6726387 76.52808838 105.68414459 77.60646973 105.69599915 78.7175293 C105.73277441 82.29407888 105.76237649 85.87064615 105.79150391 89.44726562 C105.8146209 91.93248747 105.83801125 94.41770678 105.86166382 96.90292358 C105.91638386 102.78883112 105.96599333 108.67476755 106.0138849 114.56073415 C106.06339287 120.56656076 106.12277151 126.57226548 106.18273354 132.57799721 C106.23293076 137.71504588 106.2780051 142.85212996 106.32157516 147.98923874 C106.34308832 150.44913575 106.36622728 152.90901911 106.3910408 155.36888504 C106.42509756 158.8176799 106.45219662 162.26646356 106.47753906 165.71533203 C106.48891403 166.72554413 106.500289 167.73575623 106.51200867 168.77658081 C106.60466978 184.51879469 106.60466978 184.51879469 103.43994141 189.97070312 C99.35095928 193.9277826 94.29118247 196.31936395 89.31152344 198.96923828 C79.16152141 204.40040294 69.07379614 209.94306267 59.18994141 215.84570312 C51.29278419 220.55755629 43.2211504 224.92212356 35.12402344 229.27905273 C24.79761984 234.83936026 14.59217358 240.55909287 4.62353516 246.74414062 C-0.30993606 249.51535702 -4.90496145 251.13706691 -10.56005859 249.97070312 C-15.40255354 247.93776892 -19.96091113 245.50049886 -24.56005859 242.97070312 C-25.40181641 242.51953125 -26.24357422 242.06835938 -27.11083984 241.60351562 C-30.81220923 239.59175891 -34.42625945 237.45294444 -38.02490234 235.26367188 C-44.05710942 231.63804219 -50.20934923 228.24226317 -56.37255859 224.84570312 C-67.40625337 218.74554116 -78.38001386 212.54698425 -89.31054688 206.26367188 C-92.04849305 204.68996198 -94.78834091 203.11960962 -97.52978516 201.55200195 C-99.22231348 200.58341711 -100.91272976 199.61114439 -102.60302734 198.63867188 C-104.46340153 197.58929304 -106.3394507 196.56678459 -108.23583984 195.58398438 C-109.41726562 194.97103516 -109.41726562 194.97103516 -110.62255859 194.34570312 C-111.27353516 194.0234375 -111.92451172 193.70117188 -112.59521484 193.36914062 C-116.13890061 190.84699449 -119.05573795 188.16964966 -120.04499817 183.85626221 C-120.25325569 181.29947756 -120.30432008 178.7821672 -120.30224609 176.21679688 C-120.3202829 175.23538223 -120.3383197 174.25396759 -120.35690308 173.24281311 C-120.40881791 169.96437418 -120.42314979 166.68701517 -120.43505859 163.40820312 C-120.45919202 161.09699529 -120.48427918 158.78579725 -120.51025391 156.47460938 C-120.58155649 148.6398419 -120.57984251 140.80565981 -120.56005859 132.97070312 C-120.55842209 132.23389565 -120.55678558 131.49708817 -120.55509949 130.73795319 C-120.52904126 119.75749256 -120.45226502 108.77810704 -120.33377838 97.79826736 C-120.3100648 95.47131247 -120.29078732 93.14435483 -120.2723999 90.81735229 C-120.24184981 87.13100781 -120.19538834 83.44518444 -120.13669205 79.75918388 C-120.10767038 77.74069739 -120.0925788 75.72202578 -120.07785034 73.7033844 C-120.05489899 72.49158005 -120.03194763 71.2797757 -120.00830078 70.03125 C-119.99418152 68.97643433 -119.98006226 67.92161865 -119.96551514 66.83483887 C-119.31402927 62.23275763 -117.10899673 58.98897279 -113.43505859 56.22070312 C-108.03092656 52.35497364 -102.08288091 49.44224159 -96.19677734 46.39257812 C-91.58445555 43.9993464 -87.03489427 41.50272475 -82.49755859 38.97070312 C-81.74829102 38.55280518 -80.99902344 38.13490723 -80.22705078 37.7043457 C-78.00350195 36.46195824 -75.78143831 35.21696431 -73.56005859 33.97070312 C-72.87024902 33.58382324 -72.18043945 33.19694336 -71.46972656 32.79833984 C-67.49696716 30.56883678 -63.5271073 28.33421836 -59.55859375 26.09716797 C-56.08073517 24.1368895 -52.60170357 22.17869727 -49.12255859 20.22070312 C-48.49655762 19.86806396 -47.87055664 19.5154248 -47.22558594 19.15209961 C-43.89251778 17.27609359 -40.55258708 15.41369733 -37.20458984 13.56445312 C-31.46152033 10.37801541 -25.80096102 7.05105685 -20.13818359 3.72460938 C-19.33123047 3.25410156 -18.52427734 2.78359375 -17.69287109 2.29882812 C-16.96986816 1.87504883 -16.24686523 1.45126953 -15.50195312 1.01464844 C-10.38994124 -1.7335239 -5.34706767 -2.14984144 0 0 Z " fill="#099851" transform="translate(134.56005859375,4.029296875)"/>
<path d="M0 0 C6.48424919 3.9712536 10.64454901 10.67099443 14.8125 16.875 C15.76011548 18.27233972 16.70804207 19.66946849 17.65625 21.06640625 C18.13964844 21.78070801 18.62304688 22.49500977 19.12109375 23.23095703 C20.65869624 25.48693938 22.21662718 27.72752969 23.78125 29.96484375 C24.28889893 30.69324463 24.79654785 31.42164551 25.31958008 32.17211914 C26.30054847 33.57852141 27.28467016 34.98273049 28.2722168 36.38452148 C31.625 41.21324148 31.625 41.21324148 31.625 43.4375 C36.99899697 38.70003471 40.55476331 32.78088359 44.4375 26.8125 C48.48534181 20.62259453 52.54994667 14.45080724 56.82421875 8.4140625 C57.74013794 7.11976318 57.74013794 7.11976318 58.67456055 5.79931641 C61.23548056 2.69825993 64.01623147 0.24188426 67.625 -1.5625 C79.9425664 -2.60030601 79.9425664 -2.60030601 84.25 0.1875 C87.77558397 3.52752691 89.76308618 5.48189857 90.01268005 10.44674683 C90.03354392 12.10614002 90.03778849 13.76579161 90.02905273 15.42529297 C90.03591599 16.33307495 90.04277924 17.24085693 90.04985046 18.17614746 C90.06815382 21.17748654 90.06427543 24.17830457 90.05859375 27.1796875 C90.06315431 29.26710175 90.0684595 31.35451449 90.07447815 33.44192505 C90.08341655 37.81827897 90.08097831 42.1944505 90.07104492 46.57080078 C90.05956269 52.1753471 90.07975186 57.77926268 90.10896206 63.38372612 C90.12732246 67.69548536 90.12703175 72.00709347 90.12132454 76.31888199 C90.12117126 78.3849183 90.12722095 80.45096482 90.13961601 82.51696396 C90.15451845 85.40868222 90.14385366 88.29923578 90.12670898 91.19091797 C90.13637695 92.04203156 90.14604492 92.89314514 90.15600586 93.77005005 C90.08966338 99.1224238 89.20556381 102.20771907 85.625 106.4375 C81.18099734 109.40016844 76.83598923 109.20695894 71.625 108.4375 C68.72816132 106.2359026 67.23202769 104.65155538 65.625 101.4375 C65.50432315 99.31401099 65.44755625 97.18679112 65.41967773 95.06005859 C65.40977814 94.40627731 65.39987854 93.75249603 65.38967896 93.0789032 C65.35805289 90.91461833 65.33330228 88.7503115 65.30859375 86.5859375 C65.28802517 85.08663355 65.26702872 83.58733541 65.24562073 82.08804321 C65.19039012 78.13924869 65.14098524 74.19040174 65.09277344 70.24151611 C65.04256561 66.21304654 64.9868758 62.18465322 64.93164062 58.15625 C64.82404697 50.25006444 64.72260471 42.34381515 64.625 34.4375 C63.98216064 35.47430908 63.33932129 36.51111816 62.67700195 37.5793457 C57.84808547 45.34923789 52.98492356 53.07728532 47.8125 60.625 C47.27947266 61.41712891 46.74644531 62.20925781 46.19726562 63.02539062 C38.98509655 73.58259027 38.98509655 73.58259027 34.59765625 75.171875 C31.61705528 75.19625619 29.41577326 75.12795152 27.1055603 73.11082458 C23.56395691 68.73458985 20.31639181 64.24073774 17.2265625 59.53515625 C16.7467392 58.8125914 16.26691589 58.09002655 15.77255249 57.3455658 C14.26062476 55.06659588 12.75521848 52.78340534 11.25 50.5 C10.21787851 48.941772 9.18533025 47.38382658 8.15234375 45.82617188 C5.63828897 42.03319342 3.13006816 38.23641903 0.625 34.4375 C0.62135437 35.27830612 0.61770874 36.11911224 0.61395264 36.98539734 C0.57605821 44.91607716 0.51918923 52.84634635 0.44109726 60.77673626 C0.40161754 64.85369647 0.3694317 68.93044055 0.35400391 73.00756836 C0.33884024 76.94357763 0.30440082 80.87899272 0.25669098 84.81473732 C0.24187401 86.31494795 0.2339588 87.8152434 0.23311615 89.31552696 C0.23074548 91.42022128 0.2036629 93.5232748 0.17089844 95.62768555 C0.16201599 96.82459518 0.15313354 98.02150482 0.14398193 99.25468445 C-0.47506023 103.05114996 -1.71071083 104.714589 -4.375 107.4375 C-8.56611165 109.53305583 -13.82266121 108.99592023 -18.375 108.4375 C-21.34861086 106.22186838 -22.74459793 104.69830415 -24.375 101.4375 C-24.48940937 98.44346208 -24.54287812 95.4721677 -24.55200195 92.47729492 C-24.55857315 91.54869156 -24.56514435 90.6200882 -24.57191467 89.66334534 C-24.59167159 86.58155238 -24.60331529 83.49980819 -24.61328125 80.41796875 C-24.61735678 79.36691767 -24.6214323 78.31586658 -24.62563133 77.23296547 C-24.64650178 71.6705304 -24.66079957 66.10812007 -24.67016602 60.5456543 C-24.68123555 54.79528505 -24.71563916 49.04530224 -24.75533772 43.29506969 C-24.7814609 38.87786633 -24.78985401 34.46075565 -24.79344749 30.04348183 C-24.79832417 27.92357077 -24.80996875 25.80366415 -24.82848549 23.68382835 C-24.85278634 20.71753539 -24.8519284 17.75225032 -24.8449707 14.78588867 C-24.85778076 13.90933624 -24.87059082 13.03278381 -24.88378906 12.12966919 C-24.84872593 8.03074076 -24.71417364 5.97055446 -22.46379089 2.43379211 C-16.54196178 -3.22579822 -7.32679941 -3.29564529 0 0 Z " fill="#FAFCF9" transform="translate(95.375,74.5625)"/>
<path d="M0 0 C3.91304179 1.26909463 5.85610288 2.46256976 8 6 C8.94376989 8.83130966 9.13689907 10.61583269 9.16494751 13.55215454 C9.18179848 14.95240875 9.18179848 14.95240875 9.19898987 16.38095093 C9.20631638 17.40330841 9.21364288 18.42566589 9.22119141 19.47900391 C9.2326973 20.55738525 9.24420319 21.6357666 9.25605774 22.74682617 C9.29283301 26.32337575 9.32243509 29.89994303 9.3515625 33.4765625 C9.3746795 35.96178434 9.39806984 38.44700366 9.42172241 40.93222046 C9.47644245 46.818128 9.52605193 52.70406442 9.5739435 58.59003103 C9.62345146 64.59585763 9.6828301 70.60156235 9.74279213 76.60729408 C9.79298936 81.74434276 9.8380637 86.88142684 9.88163376 92.01853561 C9.90314692 94.47843262 9.92628588 96.93831598 9.9510994 99.39818192 C9.98515615 102.84697677 10.01225522 106.29576043 10.03759766 109.74462891 C10.05466011 111.25994705 10.05466011 111.25994705 10.07206726 112.80587769 C10.16744547 129.00969898 10.16744547 129.00969898 7 134 C6.01 134.33 5.02 134.66 4 135 C4 133.68 4 132.36 4 131 C4.66 131 5.32 131 6 131 C6.02334686 115.01460608 6.04098798 99.02921768 6.05181217 83.04381084 C6.05697132 75.62173073 6.06400679 68.19966121 6.07543945 60.77758789 C6.0853979 54.30949818 6.0918562 47.84141613 6.09408849 41.37331897 C6.09539362 37.94763256 6.09846702 34.52196807 6.10573006 31.09628868 C6.11376694 27.27471883 6.11399038 23.45317055 6.11352539 19.6315918 C6.11712067 18.49223679 6.12071594 17.35288177 6.12442017 16.17900085 C6.1230455 15.13993591 6.12167084 14.10087097 6.12025452 13.03031921 C6.12117631 12.1260403 6.1220981 11.22176138 6.12304783 10.29008007 C6.09259409 7.83632863 6.09259409 7.83632863 5 5 C1.99152582 3.77479736 1.99152582 3.77479736 -1 3 C-0.67 2.01 -0.34 1.02 0 0 Z " fill="#42A17B" transform="translate(231,60)"/>
<path d="M0 0 C0.99 0.33 1.98 0.66 3 1 C3 1.66 3 2.32 3 3 C2.35168213 3.35336426 1.70336426 3.70672852 1.03540039 4.07080078 C-4.06425064 6.85127629 -9.16119241 9.63652433 -14.25390625 12.4296875 C-16.35666951 13.57831051 -18.4595346 14.72674712 -20.5625 15.875 C-21.64080078 16.46796875 -22.71910156 17.0609375 -23.83007812 17.671875 C-24.85681641 18.23132813 -25.88355469 18.79078125 -26.94140625 19.3671875 C-27.86638916 19.87362793 -28.79137207 20.38006836 -29.74438477 20.90185547 C-32 22 -32 22 -34 22 C-34 21.01 -34 20.02 -34 19 C-32.58957044 18.15615325 -31.17135868 17.32530504 -29.75 16.5 C-28.96109375 16.0359375 -28.1721875 15.571875 -27.359375 15.09375 C-25 14 -25 14 -21 14 C-20.67 13.01 -20.34 12.02 -20 11 C-18.35 11 -16.7 11 -15 11 C-15 10.34 -15 9.68 -15 9 C-14.443125 8.938125 -13.88625 8.87625 -13.3125 8.8125 C-10.7391449 8.10566307 -10.7391449 8.10566307 -8.625 5.5 C-5.65123705 2.66784481 -4.02086746 2.28052564 0 2 C0 1.34 0 0.68 0 0 Z " fill="#30A462" transform="translate(193,216)"/>
<path d="M0 0 C3.5926805 1.35632965 6.86935187 2.96049148 10.203125 4.86328125 C11.18410156 5.42080078 12.16507813 5.97832031 13.17578125 6.55273438 C14.19027344 7.13345703 15.20476562 7.71417969 16.25 8.3125 C18.25503854 9.45472518 20.26024467 10.59665624 22.265625 11.73828125 C23.70905273 12.56126709 23.70905273 12.56126709 25.18164062 13.40087891 C29.10617198 15.6276357 33.04957478 17.81957855 37 20 C33.14507389 21.28497537 31.59653164 20.4052209 27.8125 19.0625 C26.72582031 18.68222656 25.63914063 18.30195312 24.51953125 17.91015625 C23.68808594 17.60980469 22.85664063 17.30945313 22 17 C22 16.01 22 15.02 22 14 C21.0925 13.896875 20.185 13.79375 19.25 13.6875 C15.80424797 12.95859092 14.69529902 12.14038452 12 10 C9.37060243 8.58885613 6.69194881 7.2871697 4 6 C4 5.01 4 4.02 4 3 C2.68 3 1.36 3 0 3 C0 2.01 0 1.02 0 0 Z " fill="#419F76" transform="translate(179,30)"/>
<path d="M0 0 C2.97 0.495 2.97 0.495 6 1 C6 1.66 6 2.32 6 3 C7.98 3 9.96 3 12 3 C12 3.66 12 4.32 12 5 C12.99 5.33 13.98 5.66 15 6 C15 6.66 15 7.32 15 8 C16.65 8 18.3 8 20 8 C20.185625 8.639375 20.37125 9.27875 20.5625 9.9375 C21.94246056 12.42126213 21.94246056 12.42126213 25.625 12.75 C26.73875 12.8325 27.8525 12.915 29 13 C29.66 14.65 30.32 16.3 31 18 C23.38287412 14.39668895 16.04715141 10.3946391 8.75 6.1875 C7.89172607 5.69531982 7.03345215 5.20313965 6.14916992 4.69604492 C5.3522876 4.23302979 4.55540527 3.77001465 3.734375 3.29296875 C3.01475586 2.8755542 2.29513672 2.45813965 1.55371094 2.02807617 C1.04098633 1.68881104 0.52826172 1.3495459 0 1 C0 0.67 0 0.34 0 0 Z " fill="#3C976A" transform="translate(38,205)"/>
<path d="M0 0 C0.99 0.33 1.98 0.66 3 1 C3.27041685 23.80515419 3.27041685 23.80515419 0 29 C-0.99 29.33 -1.98 29.66 -3 30 C-3 28.68 -3 27.36 -3 26 C-2.34 26 -1.68 26 -1 26 C-0.67 17.42 -0.34 8.84 0 0 Z " fill="#32926A" transform="translate(238,165)"/>
<path d="M0 0 C-0.4375 2.3125 -0.4375 2.3125 -2 5 C-4.18459733 6.01475211 -6.35838191 6.65554241 -8.67578125 7.30859375 C-11.63943192 8.19021756 -14.25466551 9.59385306 -17 11 C-17.66 11 -18.32 11 -19 11 C-19.33 11.99 -19.66 12.98 -20 14 C-22.97172226 16.7667759 -23.74190625 17 -28 17 C-26.83363212 13.50089637 -26.32395418 13.32990404 -23.2109375 11.66015625 C-22.43363281 11.23669922 -21.65632813 10.81324219 -20.85546875 10.37695312 C-20.03691406 9.94318359 -19.21835937 9.50941406 -18.375 9.0625 C-16.77846925 8.19954537 -15.18211273 7.3362683 -13.5859375 6.47265625 C-12.81217773 6.05902832 -12.03841797 5.64540039 -11.24121094 5.21923828 C-9.14779285 4.0804006 -7.09260465 2.89240511 -5.0390625 1.68359375 C-2 0 -2 0 0 0 Z " fill="#439E76" transform="translate(61,39)"/>
<path d="M0 0 C2.36984763 0.45868019 4.72140088 0.92584814 7.0546875 1.546875 C12.45255575 2.92902812 16.51328823 2.99758396 22 2 C22 2.66 22 3.32 22 4 C17.74672132 6.12663934 13.67976809 6.71996432 9 6 C1.65254237 3.30508475 1.65254237 3.30508475 0 0 Z " fill="#30996C" transform="translate(115,248)"/>
<path d="M0 0 C1.98 0 3.96 0 6 0 C3.00130222 3.32229826 0.08355403 5.18799793 -3.9375 7.125 C-4.95714844 7.62257812 -5.97679687 8.12015625 -7.02734375 8.6328125 C-9.65857162 9.84296986 -12.29942483 10.95557866 -15 12 C-14.67 11.34 -14.34 10.68 -14 10 C-13.34 10 -12.68 10 -12 10 C-12 9.01 -12 8.02 -12 7 C-11.43410156 6.80664062 -10.86820313 6.61328125 -10.28515625 6.4140625 C-9.55167969 6.15367187 -8.81820312 5.89328125 -8.0625 5.625 C-6.96615234 5.24214844 -6.96615234 5.24214844 -5.84765625 4.8515625 C-3.81317884 4.14728587 -3.81317884 4.14728587 -3 2 C-2.01 2 -1.02 2 0 2 C0 1.34 0 0.68 0 0 Z " fill="#44A776" transform="translate(153,238)"/>
<path d="M0 0 C-0.0625 1.8125 -0.0625 1.8125 -1 4 C-4.4375 5.625 -4.4375 5.625 -8 7 C-8.66 7.66 -9.32 8.32 -10 9 C-13.625 9.125 -13.625 9.125 -17 9 C-12.38337183 4.97906579 -6.32944487 0 0 0 Z " fill="#1C9360" transform="translate(124,4)"/>
<path d="M0 0 C3.90160892 1.26538668 6.02418805 2.34474789 8 6 C8.6875 9.75 8.6875 9.75 9 13 C7 11 7 11 6.25 8 C5.27694147 4.69290007 5.27694147 4.69290007 1.875 3.625 C0.92625 3.41875 -0.0225 3.2125 -1 3 C-0.67 2.01 -0.34 1.02 0 0 Z " fill="#2F9F74" transform="translate(231,60)"/>
<path d="M0 0 C1.32 0.33 2.64 0.66 4 1 C4 1.66 4 2.32 4 3 C6.31 3.33 8.62 3.66 11 4 C11.66 5.65 12.32 7.3 13 9 C11.01501949 8.07487334 9.03713982 7.13449763 7.0625 6.1875 C5.96035156 5.66542969 4.85820313 5.14335937 3.72265625 4.60546875 C1 3 1 3 0 0 Z " fill="#2E9966" transform="translate(56,214)"/>
<path d="M0 0 C1.32 0.33 2.64 0.66 4 1 C2.09273249 2.20253816 0.1737988 3.38658949 -1.75 4.5625 C-2.81734375 5.22378906 -3.8846875 5.88507813 -4.984375 6.56640625 C-8 8 -8 8 -10.390625 7.71484375 C-10.92171875 7.47894531 -11.4528125 7.24304688 -12 7 C-11.34 7 -10.68 7 -10 7 C-10 6.34 -10 5.68 -10 5 C-9.01 5 -8.02 5 -7 5 C-7 4.34 -7 3.68 -7 3 C-3.535 2.505 -3.535 2.505 0 2 C0 1.34 0 0.68 0 0 Z " fill="#3B9E6A" transform="translate(219,202)"/>
<path d="M0 0 C2.25525345 1.07335592 4.50375548 2.15807558 6.75 3.25 C7.38421875 3.55035156 8.0184375 3.85070312 8.671875 4.16015625 C12.41687422 5.99364545 15.24803883 7.85887261 18 11 C13.91977277 10.185805 10.85262045 8.27182858 7.31640625 6.15625 C4.86856298 4.93439231 2.69293753 4.4179515 0 4 C0 2.68 0 1.36 0 0 Z " fill="#5CB282" transform="translate(160,19)"/>
<path d="M0 0 C1 3 1 3 -0.125 5.3125 C-2.26213503 8.37572688 -4.56409892 11.16908794 -7 14 C-7.66 13.67 -8.32 13.34 -9 13 C-6.03 8.71 -3.06 4.42 0 0 Z " fill="#1D8E5B" transform="translate(159,110)"/>
<path d="M0 0 C0.391875 0.598125 0.78375 1.19625 1.1875 1.8125 C3.20692295 4.2497346 5.30246282 5.39605897 8 7 C8 7.66 8 8.32 8 9 C4.12084756 8.42531075 1.85243395 6.62115553 -1 4 C-1.33 3.01 -1.66 2.02 -2 1 C-1.34 0.67 -0.68 0.34 0 0 Z " fill="#36966C" transform="translate(18,189)"/>
<path d="M0 0 C-1.78881736 1.00508801 -3.58114696 2.00392736 -5.375 3 C-6.37273437 3.556875 -7.37046875 4.11375 -8.3984375 4.6875 C-11 6 -11 6 -13 6 C-13 5.01 -13 4.02 -13 3 C-9.535 2.505 -9.535 2.505 -6 2 C-6 1.34 -6 0.68 -6 0 C-2.25 -1.125 -2.25 -1.125 0 0 Z " fill="#47A37F" transform="translate(172,232)"/>
<path d="M0 0 C5.80160774 1.48701402 10.57763179 2.72504406 15 7 C9.54520815 6.43179252 5.08940744 5.05362055 0 3 C0 2.01 0 1.02 0 0 Z " fill="#3FA67B" transform="translate(201,44)"/>
<path d="M0 0 C3.69876091 1.37287342 6.9514476 3.06355453 10.3125 5.125 C11.19550781 5.66382813 12.07851562 6.20265625 12.98828125 6.7578125 C13.65214844 7.16773438 14.31601563 7.57765625 15 8 C14.01 8.495 14.01 8.495 13 9 C10.9765625 8.0390625 10.9765625 8.0390625 8.625 6.625 C5.74726623 4.90220955 3.30241495 3.64841937 0 3 C0 2.01 0 1.02 0 0 Z " fill="#6AB58F" transform="translate(179,30)"/>
<path d="M0 0 C4.81430721 -0.56638908 7.20307814 1.17438373 11 4 C10.67 4.99 10.34 5.98 10 7 C8.33073546 6.02526874 6.66464358 5.04510211 5 4.0625 C4.071875 3.51722656 3.14375 2.97195312 2.1875 2.41015625 C1.465625 1.94480469 0.74375 1.47945312 0 1 C0 0.67 0 0.34 0 0 Z " fill="#2C9563" transform="translate(88,233)"/>
<path d="M0 0 C0 0.66 0 1.32 0 2 C-4.49656104 4.24828052 -8.07872966 4.16682272 -13 4 C-8.84541088 1.76291355 -4.76123067 0 0 0 Z " fill="#3FA570" transform="translate(137,250)"/>
<path d="M0 0 C0.99 0.66 1.98 1.32 3 2 C-1.5 6 -1.5 6 -6 6 C-4.75453595 2.26360784 -3.36595047 1.81243487 0 0 Z " fill="#30956C" transform="translate(39,50)"/>
<path d="M0 0 C-1.78614318 1.03046722 -3.57910018 2.04913236 -5.375 3.0625 C-6.87160156 3.91521484 -6.87160156 3.91521484 -8.3984375 4.78515625 C-9.25695312 5.18605469 -10.11546875 5.58695313 -11 6 C-11.66 5.67 -12.32 5.34 -13 5 C-12.01 4.67 -11.02 4.34 -10 4 C-10 3.01 -10 2.02 -10 1 C-3.375 -1.125 -3.375 -1.125 0 0 Z " fill="#60AD87" transform="translate(151,244)"/>
<path d="M0 0 C4.75481646 0.57634139 7.97048212 2.55068521 12 5 C11.01 5.66 10.02 6.32 9 7 C9 6.34 9 5.68 9 5 C6.69 4.34 4.38 3.68 2 3 C2 2.34 2 1.68 2 1 C1.34 0.67 0.68 0.34 0 0 Z " fill="#49A574" transform="translate(131,4)"/>
<path d="M0 0 C-0.33 1.32 -0.66 2.64 -1 4 C-3.64 4.33 -6.28 4.66 -9 5 C-4.22727273 0 -4.22727273 0 0 0 Z " fill="#2A9764" transform="translate(124,4)"/>
<path d="M0 0 C0.99 0.33 1.98 0.66 3 1 C3 1.66 3 2.32 3 3 C0.03 4.32 -2.94 5.64 -6 7 C-6 6.34 -6 5.68 -6 5 C-5.34 5 -4.68 5 -4 5 C-4 4.01 -4 3.02 -4 2 C-2.68 2 -1.36 2 0 2 C0 1.34 0 0.68 0 0 Z " fill="#459E79" transform="translate(193,216)"/>
<path d="M0 0 C0.33 0.66 0.66 1.32 1 2 C0.3503125 2.61875 0.3503125 2.61875 -0.3125 3.25 C-2.07549274 4.99280873 -2.07549274 4.99280873 -3.5625 7.1875 C-4.2740625 8.0846875 -4.2740625 8.0846875 -5 9 C-5.66 9 -6.32 9 -7 9 C-6.82374165 6.62051228 -6.30280227 5.29774151 -4.59765625 3.62109375 C-3.09350908 2.37884514 -1.54870149 1.18623944 0 0 Z " fill="#31A67A" transform="translate(23,59)"/>
<path d="M0 0 C4.51720311 -0.36625971 4.51720311 -0.36625971 6.8125 1.375 C8 3 8 3 8 5 C4.62496331 3.8141763 2.35277269 2.72426311 0 0 Z " fill="#3B9F75" transform="translate(106,243)"/>
<path d="M0 0 C1.32 0.66 2.64 1.32 4 2 C0.5647952 4.29013653 -0.985331 4.17842973 -5 4 C-3.35 2.68 -1.7 1.36 0 0 Z " fill="#399A6F" transform="translate(96,18)"/>
<path d="M0 0 C0 0.66 0 1.32 0 2 C-0.66 2 -1.32 2 -2 2 C-2 2.99 -2 3.98 -2 5 C-2.99 5.33 -3.98 5.66 -5 6 C-5 4.68 -5 3.36 -5 2 C-2 0 -2 0 0 0 Z " fill="#23865B" transform="translate(189,219)"/>
<path d="M0 0 C2.7972908 2.06756277 3.02692273 3.14440371 3.6875 6.6875 C3.790625 7.780625 3.89375 8.87375 4 10 C1.997499 7.997499 1.06784629 6.593341 0 4 C0 2.68 0 1.36 0 0 Z " fill="#51A485" transform="translate(236,63)"/>
</svg>
