<?xml version="1.0" standalone="no"?>
<!DOCTYPE svg PUBLIC "-//W3C//DTD SVG 20010904//EN" "http://www.w3.org/TR/2001/REC-SVG-20010904/DTD/svg10.dtd">
<svg version="1.0" xmlns="http://www.w3.org/2000/svg"
  width="1080.000000pt" height="1080.000000pt" viewBox="0 0 1080.000000 1080.000000"
  preserveAspectRatio="xMidYMid meet">

  <g transform="translate(0.000000,1080.000000) scale(0.100000,-0.100000)"
    fill="#000000" stroke="none">
    <path
      d="M0 5400 l0 -5400 5400 0 5400 0 0 5400 0 5400 -5400 0 -5400 0 0
-5400z m8008 2133 l2 -472 -1637 -4 c-1487 -3 -1645 -5 -1713 -20 -236 -53
-417 -153 -586 -323 -180 -182 -293 -411 -323 -659 -14 -117 -15 -1189 -1
-1305 17 -138 47 -238 110 -365 159 -323 440 -541 800 -622 68 -15 226 -17
1713 -20 l1637 -4 -2 -472 -3 -472 -1635 0 c-1724 0 -1694 -1 -1923 46 -760
154 -1397 770 -1592 1539 -59 230 -60 255 -60 1015 0 624 2 712 18 815 77 496
294 899 671 1249 345 319 793 511 1265 541 64 4 823 7 1686 6 l1570 -1 3 -472z" />
  </g>
</svg>