<?xml version="1.0" encoding="UTF-8"?>
<svg xmlns="http://www.w3.org/2000/svg" version="1.1" xmlns:cc="http://creativecommons.org/ns#" xmlns:dc="http://purl.org/dc/elements/1.1/" xmlns:rdf="http://www.w3.org/1999/02/22-rdf-syntax-ns#" xmlns:svg="http://www.w3.org/2000/svg" viewBox="0 0 187 188.8">
  <!-- Generator: Adobe Illustrator 29.7.1, SVG Export Plug-In . SVG Version: 2.1.1 Build 8)  -->
  <defs>
    <style>
      .st0 {
        fill: #fff;
      }

      .st1 {
        fill: #1565c0;
      }
    </style>
  </defs>
  <g id="Capa_2">
    <rect class="st1" x="0" y="0" width="187" height="188.8"/>
  </g>
  <g id="svg8">
    <g id="layer1">
      <g id="g861">
        <g id="text833">
          <path id="path961" class="st0" d="M165.5,69.9l-8,9.8c-23.8-12.2-40.8-25-51.1-38.2-10.1,14-26.3,26.4-48.8,37.4l-8.5-9.5c29.8-13.8,48.3-30.4,55.5-49.9l11.4,3.5c-1.5,4.5-2.5,7.1-3,7.8,9.6,13.8,27.1,26.8,52.5,38.9h0ZM167.7,133.6l-8.8,8.4c-13.1-10-23.2-22.2-30.4-36.6-4.7,13.4-14.5,25.5-29.4,36.3l-8.8-8.1c10.3-6.9,18.1-15,23.3-24.3s8.1-22.6,8.8-39.9l11.8,1c0,2.3-.2,5.2-.5,8.7l-.5,4.7c0,2.4,1.3,6.8,3.9,13.4,2.7,6.5,6.6,12.8,11.6,19,5.1,6.1,11.4,11.9,18.8,17.4h0ZM105.5,115.8l-9.1,8.2c-5.1-6.7-10.1-12.2-15.1-16.5-5.6,12.3-14.3,23.8-26.2,34.7l-8.9-8c10.6-9.5,18.2-19,22.9-28.5,4.7-9.5,7.7-21.6,9-36.2l11.9,1.3c-.9,8.1-2.5,16.4-4.8,24.8,8.7,7.4,15.4,14.2,20.1,20.3h0Z"/>
        </g>
        <g id="text841">
          <path id="path964" class="st0" d="M78.3,169.3v-10.7H31.5v-84.1h-12.1v94.8h58.9Z"/>
        </g>
      </g>
    </g>
  </g>
</svg>